<svg width="1282" height="298" viewBox="0 0 1282 298" fill="none" xmlns="http://www.w3.org/2000/svg">
<path d="M95.3896 269.31C66.5596 269.31 39.43 266.06 14 259.56C10.32 258.43 8.49023 256.03 8.49023 252.35V222.25C8.49023 218.01 10.7505 216.04 15.2705 216.32C45.7905 221.41 71.4999 223.95 92.4199 223.95C108.53 223.95 119.19 222.47 124.42 219.5C129.65 216.53 132.26 210.39 132.26 201.06C132.26 193.43 129.99 188.2 125.48 185.38C120.96 182.56 112.62 180.58 100.47 179.45L82.2402 177.75C52.0002 174.93 30.6605 169.13 18.2305 160.37C6.08047 151.61 0 136.63 0 115.44C0 91.14 6.99047 73.83 20.9805 63.51C34.9705 53.2 58.3496 48.04 91.1396 48.04C120.24 48.04 146.25 51.01 169.14 56.94C172.81 57.79 174.65 60.05 174.65 63.72V93.82C174.65 98.06 172.39 100.04 167.87 99.75C141.59 95.23 116.86 92.97 93.6904 92.97C78.7104 92.97 68.8205 94.32 64.0205 97C59.2105 99.69 56.6696 105.27 56.3896 113.74C56.3896 119.67 58.3004 123.91 62.1104 126.46C65.9304 129 73.0605 130.98 83.5205 132.4L103.44 134.52C127.74 137.91 145.12 141.59 155.58 145.54C166.88 150.06 175.01 156.35 179.96 164.4C184.9 172.45 187.8 184.39 188.65 200.22C188.65 225.94 181.58 243.88 167.45 254.05C153.32 264.22 129.3 269.31 95.3896 269.31Z" fill="#212A29"/>
<path d="M360.91 261.26C347.62 266.63 327.99 269.31 301.99 269.31C275.99 269.31 255.5 266.41 242.22 260.62C228.93 254.83 218.9 244.16 212.12 228.62C205.34 212.51 201.95 189.2 201.95 158.68C201.95 101.31 215.65 67.26 243.07 56.52C256.91 50.87 276.56 48.04 301.99 48.04C327.42 48.04 347.06 50.87 360.91 56.52C374.48 62.18 384.65 72.91 391.43 88.74C398.49 104.57 402.03 127.88 402.03 158.68C402.03 215.48 388.32 249.68 360.91 261.26ZM301.99 223.11C320.07 223.11 331.38 219.16 335.9 211.24C340.7 203.05 343.11 185.53 343.11 158.68C343.11 131.83 340.7 114.03 335.9 106.11C331.38 98.2 320.07 94.1 301.99 93.82C283.62 93.82 272.17 97.78 267.65 105.69C263.13 113.04 260.87 130.7 260.87 158.68C260.87 186.66 263.13 204.32 267.65 211.67C272.45 219.3 283.9 223.12 301.99 223.12" fill="#212A29"/>
<path d="M481.26 269.31C432.37 269.31 407.93 246.28 407.93 200.22C407.93 178.46 414.14 162.64 426.58 152.74C439.01 142.85 459.92 137.06 489.32 135.36L544 131.97C544 116.43 541.31 106.4 535.95 101.87C530.29 97.07 517.86 94.66 498.65 94.66C476.04 94.66 452.45 97.2 427.86 102.29C423.34 103.14 421.08 101.17 421.08 96.36V65.84C421.08 62.17 422.78 59.77 426.17 58.63C450.19 51.57 476.75 48.03 505.86 48.03C524.23 48.03 538.781 49.37 549.521 52.06C560.261 54.75 569.72 59.76 577.92 67.11C593.46 80.67 601.24 108.65 601.24 151.04V258.29C601.24 262.53 599.12 264.65 594.88 264.65H560.12C556.73 264.65 554.33 262.95 552.91 259.56L548.25 244.72C547.4 245.85 545.28 248.11 541.89 251.5C539.35 254.04 532.141 257.72 520.271 262.52C509.251 267.04 496.251 269.3 481.271 269.3M496.95 223.11C506.84 223.11 515.88 221.84 524.08 219.29C532.27 216.75 537.78 214.06 540.61 211.24L544 207V172.66L497.8 175.63C483.95 176.48 474.98 178.32 470.88 181.14C466.78 183.97 464.73 189.9 464.73 198.94C464.73 207.98 466.92 214.27 471.3 217.8C475.68 221.34 484.23 223.1 496.95 223.1" fill="#212A29"/>
<path d="M679.26 264.65H633.48C629.24 264.65 627.12 262.53 627.12 258.29V59.0598C627.12 54.8198 629.24 52.6998 633.48 52.6998H667.39C671.35 52.6998 673.75 54.5398 674.6 58.2098L679.26 83.2198C681.52 77.8598 686.18 71.4998 693.25 64.1398C703.42 53.9698 724.35 49.0698 745.83 49.0698C752.04 49.0698 755.86 49.2198 757.28 49.4898C761.23 50.0598 763.21 52.1798 763.21 55.8498V96.9698C763.21 101.49 760.94 103.33 756.43 102.48C748.8 101.35 740.32 100.79 731 100.79C716.59 100.79 701.17 103.99 694.96 110.77C688.74 117.55 685.63 127.45 685.63 140.44V258.28C685.63 262.52 683.511 264.64 679.271 264.64" fill="#212A29"/>
<path d="M1130.33 270.27H1082.12C1077.66 270.27 1075.42 268.04 1075.42 263.57V53.7701C1075.42 49.3101 1077.65 47.0702 1082.12 47.0702H1117.83C1121.99 47.0702 1124.53 49.0101 1125.42 52.8701L1130.33 79.2101C1132.71 72.9601 1137.62 65.9702 1145.06 58.2302C1155.77 47.5202 1172.44 42.1602 1195.05 42.1602C1225.1 42.1602 1247.12 49.1601 1261.11 63.1401C1274.79 76.8301 1281.64 103.31 1281.64 142.6V263.57C1281.64 268.03 1279.41 270.27 1274.94 270.27H1226.73C1222.27 270.27 1220.04 268.04 1220.04 263.57V152.42C1220.04 128.31 1217.51 112.55 1212.45 105.1C1207.69 97.9602 1195.93 94.3901 1177.19 94.3901C1162.61 94.3901 1152.26 97.6701 1146.17 104.21C1140.07 110.76 1137.02 120.58 1137.02 133.67V263.56C1137.02 268.02 1134.79 270.26 1130.32 270.26" fill="#212A29"/>
<path d="M916.65 297.17C834.72 297.17 768.07 230.51 768.07 148.58C768.07 66.65 834.72 0 916.65 0C998.58 0 1065.23 66.65 1065.23 148.58C1065.23 230.51 998.57 297.17 916.65 297.17ZM916.65 12.93C841.85 12.93 780.99 73.79 780.99 148.59C780.99 223.39 841.85 284.25 916.65 284.25C991.45 284.25 1052.31 223.39 1052.31 148.59C1052.31 73.79 991.45 12.93 916.65 12.93Z" fill="#212A29"/>
<path d="M992.56 241.34C990.77 241.34 988.99 240.6 987.71 239.15C985.35 236.47 985.61 232.39 988.29 230.03C1011.69 209.43 1025.11 179.74 1025.11 148.59C1025.11 125.42 1017.91 103.33 1004.3 84.6799C1002.19 81.7999 1002.82 77.7599 1005.71 75.6499C1008.59 73.5499 1012.63 74.1699 1014.74 77.0599C1029.99 97.9299 1038.04 122.66 1038.04 148.59C1038.04 183.46 1023.02 216.67 996.83 239.73C995.6 240.81 994.08 241.34 992.56 241.34Z" fill="#212A29"/>
<path d="M822.97 221.63C820.95 221.63 818.96 220.69 817.7 218.92C803.02 198.3 795.26 173.98 795.26 148.59C795.26 114.4 809.79 81.62 835.14 58.64C837.79 56.24 841.871 56.44 844.271 59.09C846.671 61.73 846.47 65.82 843.82 68.22C821.17 88.75 808.19 118.05 808.19 148.6C808.19 171.29 815.12 193.02 828.23 211.43C830.3 214.34 829.62 218.37 826.71 220.44C825.57 221.25 824.27 221.64 822.97 221.64" fill="#212A29"/>
<path d="M839.18 200C836.95 200 834.79 198.85 833.59 196.79C825.12 182.21 820.64 165.55 820.64 148.6C820.64 137.96 822.37 127.49 825.79 117.51C826.95 114.13 830.62 112.34 833.99 113.49C837.37 114.65 839.17 118.32 838.01 121.7C835.06 130.34 833.561 139.39 833.561 148.61C833.561 163.28 837.43 177.7 844.76 190.31C846.55 193.39 845.51 197.35 842.42 199.14C841.4 199.73 840.28 200.02 839.18 200.02" fill="#212A29"/>
<path d="M997.25 194.12C996.3 194.12 995.34 193.91 994.43 193.47C991.22 191.91 989.881 188.04 991.441 184.83C996.951 173.49 999.741 161.3 999.741 148.59C999.741 133.04 995.42 117.89 987.25 104.76C985.36 101.73 986.291 97.7499 989.321 95.8599C992.351 93.9699 996.33 94.8999 998.22 97.9299C1007.67 113.11 1012.66 130.63 1012.66 148.59C1012.66 163.27 1009.43 177.36 1003.06 190.48C1001.94 192.78 999.641 194.12 997.241 194.12" fill="#212A29"/>
<path d="M916.65 171.47C904.03 171.47 893.771 161.21 893.771 148.59C893.771 135.97 904.03 125.71 916.65 125.71C929.27 125.71 939.53 135.97 939.53 148.59C939.53 161.21 929.27 171.47 916.65 171.47ZM916.65 138.63C911.16 138.63 906.69 143.1 906.69 148.59C906.69 154.08 911.16 158.55 916.65 158.55C922.14 158.55 926.61 154.08 926.61 148.59C926.61 143.1 922.14 138.63 916.65 138.63Z" fill="#212A29"/>
<path d="M840.37 246.35C838.08 246.35 835.78 245.55 833.93 243.92L817.731 229.65C813.791 226.18 813.3 220.27 816.62 216.19L864.28 157.68C865.45 156.25 866.99 155.18 868.75 154.59L897.7 144.94L901.78 157.2L873.71 166.56L828.57 221.98L840.21 232.24L912.55 158.98L921.75 168.06L847.311 243.45C845.421 245.38 842.9 246.36 840.38 246.36M838.111 234.37C838.111 234.37 838.1 234.38 838.09 234.39L838.111 234.37Z" fill="#212A29"/>
<path d="M934.39 151.92L930.39 139.63L958.521 130.47L1004.04 75.37L992.47 65.03L919.63 137.79L910.5 128.65L985.46 53.77C989.09 50.12 994.98 49.94 998.84 53.39L1014.94 67.77C1018.86 71.27 1019.3 77.18 1015.96 81.23L967.9 139.41C966.72 140.83 965.17 141.89 963.41 142.46L934.39 151.91V151.92ZM994.61 62.89L994.59 62.91C994.59 62.91 994.6 62.9 994.61 62.89Z" fill="#212A29"/>
<path d="M834.99 103.09C834.99 98.87 838.41 95.45 842.63 95.45C846.85 95.45 850.271 98.87 850.271 103.09C850.271 107.31 846.85 110.73 842.63 110.73C838.41 110.73 834.99 107.31 834.99 103.09Z" fill="#212A29"/>
<path d="M975.771 202.81C975.771 198.59 979.19 195.17 983.41 195.17C987.63 195.17 991.05 198.59 991.05 202.81C991.05 207.03 987.63 210.45 983.41 210.45C979.19 210.45 975.771 207.03 975.771 202.81Z" fill="#212A29"/>
</svg>
